<svg width="800" height="238" viewBox="0 0 800 238" fill="none" xmlns="http://www.w3.org/2000/svg">
<path d="M770.37 237.037H29.6296C13.037 237.037 0 224 0 207.407V29.6296C0 13.037 13.037 0 29.6296 0H770.37C786.963 0 800 13.037 800 29.6296V207.407C800 224 786.963 237.037 770.37 237.037Z" fill="black"/>
<path d="M770.37 4.74074C784 4.74074 795.259 16 795.259 29.6296V207.407C795.259 221.037 784 232.296 770.37 232.296H29.6296C16 232.296 4.74074 221.037 4.74074 207.407V29.6296C4.74074 16 16 4.74074 29.6296 4.74074H770.37ZM770.37 0H29.6296C13.037 0 0 13.6296 0 29.6296V207.407C0 224 13.037 237.037 29.6296 237.037H770.37C786.963 237.037 800 224 800 207.407V29.6296C800 13.6296 786.963 0 770.37 0Z" fill="#A6A6A6"/>
<path d="M280.889 60.4442C280.889 65.185 279.704 69.3331 276.741 72.2961C273.185 75.8516 269.037 77.6294 263.704 77.6294C258.371 77.6294 254.222 75.8516 250.667 72.2961C247.111 68.7405 245.333 64.5924 245.333 59.259C245.333 53.9257 247.111 49.7776 250.667 46.222C254.222 42.6664 258.371 40.8887 263.704 40.8887C266.074 40.8887 268.445 41.4813 270.815 42.6664C273.185 43.8516 274.963 45.0368 276.148 46.8146L273.185 49.7776C270.815 46.8146 267.852 45.6294 263.704 45.6294C260.148 45.6294 256.593 46.8146 254.222 49.7776C251.259 52.1479 250.074 55.7035 250.074 59.8516C250.074 63.9998 251.259 67.5553 254.222 69.9257C257.185 72.2961 260.148 74.0739 263.704 74.0739C267.852 74.0739 270.815 72.8887 273.778 69.9257C275.556 68.1479 276.741 65.7776 276.741 62.8146H263.704V58.0739H280.889V60.4442ZM308.148 45.6294H292.148V56.8887H306.963V61.0368H292.148V72.2961H308.148V77.0368H287.408V41.4813H308.148V45.6294ZM327.704 77.0368H322.963V45.6294H312.889V41.4813H337.778V45.6294H327.704V77.0368ZM354.963 77.0368V41.4813H359.704V77.0368H354.963ZM379.852 77.0368H375.111V45.6294H365.037V41.4813H389.333V45.6294H379.259V77.0368H379.852ZM436.148 72.2961C432.593 75.8516 428.445 77.6294 423.111 77.6294C417.778 77.6294 413.63 75.8516 410.074 72.2961C406.519 68.7405 404.741 64.5924 404.741 59.259C404.741 53.9257 406.519 49.7776 410.074 46.222C413.63 42.6664 417.778 40.8887 423.111 40.8887C428.445 40.8887 432.593 42.6664 436.148 46.222C439.704 49.7776 441.482 53.9257 441.482 59.259C441.482 64.5924 439.704 68.7405 436.148 72.2961ZM413.63 69.3331C416 71.7035 419.556 73.4813 423.111 73.4813C426.667 73.4813 430.222 72.2961 432.593 69.3331C434.963 66.9627 436.741 63.4072 436.741 59.259C436.741 55.1109 435.556 51.5553 432.593 49.185C430.222 46.8146 426.667 45.0368 423.111 45.0368C419.556 45.0368 416 46.222 413.63 49.185C411.259 51.5553 409.482 55.1109 409.482 59.259C409.482 63.4072 410.667 66.9627 413.63 69.3331ZM448 77.0368V41.4813H453.333L470.519 69.3331V41.4813H475.259V77.0368H470.519L452.148 47.9998V77.0368H448Z" fill="white" stroke="white" stroke-width="1.18519" stroke-miterlimit="10"/>
<path d="M403.556 129.185C389.333 129.185 378.074 139.852 378.074 154.667C378.074 168.889 389.333 180.148 403.556 180.148C417.778 180.148 429.037 169.482 429.037 154.667C429.037 139.259 417.778 129.185 403.556 129.185ZM403.556 169.482C395.852 169.482 389.333 162.963 389.333 154.074C389.333 145.185 395.852 138.667 403.556 138.667C411.259 138.667 417.778 144.593 417.778 154.074C417.778 162.963 411.259 169.482 403.556 169.482ZM348.445 129.185C334.222 129.185 322.963 139.852 322.963 154.667C322.963 168.889 334.222 180.148 348.445 180.148C362.667 180.148 373.926 169.482 373.926 154.667C373.926 139.259 362.667 129.185 348.445 129.185ZM348.445 169.482C340.741 169.482 334.222 162.963 334.222 154.074C334.222 145.185 340.741 138.667 348.445 138.667C356.148 138.667 362.667 144.593 362.667 154.074C362.667 162.963 356.148 169.482 348.445 169.482ZM282.667 136.889V147.556H308.148C307.556 153.482 305.185 158.222 302.222 161.185C298.667 164.741 292.741 168.889 282.667 168.889C266.667 168.889 254.815 156.445 254.815 140.445C254.815 124.445 267.259 112 282.667 112C290.963 112 297.482 115.556 302.222 119.704L309.926 112C303.408 106.074 295.111 101.333 283.259 101.333C261.926 101.333 243.556 119.111 243.556 140.445C243.556 161.778 261.926 179.556 283.259 179.556C295.111 179.556 303.408 176 310.519 168.296C317.63 161.185 320 151.111 320 143.408C320 141.037 320 138.667 319.408 136.889H282.667ZM551.704 145.185C549.333 139.259 543.408 129.185 530.37 129.185C517.333 129.185 506.667 139.259 506.667 154.667C506.667 168.889 517.333 180.148 531.556 180.148C542.815 180.148 549.926 173.037 552.296 168.889L544 162.963C541.037 167.111 537.482 170.074 531.556 170.074C525.63 170.074 522.074 167.704 519.111 162.371L552.889 148.148L551.704 145.185ZM517.333 153.482C517.333 144 525.037 138.667 530.37 138.667C534.519 138.667 538.667 141.037 539.852 144L517.333 153.482ZM489.482 177.778H500.741V103.704H489.482V177.778ZM471.704 134.519C468.741 131.556 464 128.593 458.074 128.593C445.63 128.593 433.778 139.852 433.778 154.074C433.778 168.296 445.037 178.963 458.074 178.963C464 178.963 468.741 176 471.111 173.037H471.704V176.593C471.704 186.074 466.37 191.408 458.074 191.408C451.556 191.408 446.815 186.667 445.63 182.519L436.148 186.667C439.111 193.185 446.222 201.482 458.667 201.482C471.704 201.482 482.37 193.778 482.37 175.408V130.371H471.704V134.519ZM458.667 169.482C450.963 169.482 444.445 162.963 444.445 154.074C444.445 145.185 450.963 138.667 458.667 138.667C466.37 138.667 472.296 145.185 472.296 154.074C472.296 162.963 466.37 169.482 458.667 169.482ZM603.259 103.704H576.593V177.778H587.852V149.926H603.259C615.704 149.926 627.556 141.037 627.556 126.815C627.556 112.593 615.704 103.704 603.259 103.704ZM603.852 139.259H587.852V113.778H603.852C612.148 113.778 616.889 120.889 616.889 126.222C616.296 132.741 611.556 139.259 603.852 139.259ZM672 128.593C663.704 128.593 655.408 132.148 652.445 139.852L662.519 144C664.889 139.852 668.445 138.667 672.593 138.667C678.519 138.667 683.852 142.222 684.445 148.148V148.741C682.667 147.556 677.926 145.778 673.185 145.778C662.519 145.778 651.852 151.704 651.852 162.371C651.852 172.445 660.741 178.963 670.222 178.963C677.926 178.963 681.482 175.408 684.445 171.852H685.037V177.778H695.704V149.333C694.519 136.296 684.445 128.593 672 128.593ZM670.815 169.482C667.259 169.482 661.926 167.704 661.926 162.963C661.926 157.037 668.445 155.259 673.778 155.259C678.519 155.259 680.889 156.445 683.852 157.63C682.667 164.741 676.741 169.482 670.815 169.482ZM733.037 130.371L720.593 162.371H720L706.963 130.371H695.111L714.667 175.408L703.407 200.296H714.667L744.889 130.371H733.037ZM633.482 177.778H644.741V103.704H633.482V177.778Z" fill="white"/>
<path d="M61.6296 44.4443C59.8519 46.2221 59.2593 49.1851 59.2593 52.7406V183.704C59.2593 187.259 60.4445 190.222 62.2222 192L62.8148 192.592L136.296 119.111V117.926L61.6296 44.4443Z" fill="url(#paint0_linear_270_388)"/>
<path d="M160 144L135.704 119.703V117.926L160 93.6294L160.593 94.222L189.63 110.815C197.926 115.555 197.926 123.259 189.63 128L160 144Z" fill="url(#paint1_linear_270_388)"/>
<path d="M160.593 143.407L135.704 118.519L61.6299 192.593C64.5928 195.556 68.741 195.556 74.0743 193.185L160.593 143.407Z" fill="url(#paint2_linear_270_388)"/>
<path d="M160.593 93.6293L74.0743 44.4441C68.741 41.4811 64.5928 42.0737 61.6299 45.0367L135.704 118.518L160.593 93.6293Z" fill="url(#paint3_linear_270_388)"/>
<path opacity="0.2" d="M160 142.814L74.0743 191.407C69.3336 194.37 65.1854 193.777 62.2225 191.407L61.6299 192L62.2225 192.592C65.1854 194.963 69.3336 195.555 74.0743 192.592L160 142.814Z" fill="black"/>
<path opacity="0.12" d="M61.6296 191.407C59.8519 189.63 59.2593 186.667 59.2593 183.111V183.704C59.2593 187.259 60.4445 190.222 62.2222 192V191.407H61.6296ZM189.63 126.222L160 142.815L160.593 143.407L189.63 126.815C193.778 124.444 195.556 121.482 195.556 118.519C195.556 121.482 193.185 123.852 189.63 126.222Z" fill="black"/>
<path opacity="0.25" d="M74.0741 45.0368L189.63 110.815C193.185 113.185 195.556 115.555 195.556 118.518C195.556 115.555 193.778 112.592 189.63 110.222L74.0741 44.4442C65.7778 39.7035 59.2593 43.2591 59.2593 52.7405V53.3331C59.2593 44.4442 65.7778 40.2961 74.0741 45.0368Z" fill="white"/>
<defs>
<linearGradient id="paint0_linear_270_388" x1="129.185" y1="51.6147" x2="29.7304" y2="151.064" gradientUnits="userSpaceOnUse">
<stop stop-color="#00A0FF"/>
<stop offset="0.007" stop-color="#00A1FF"/>
<stop offset="0.26" stop-color="#00BEFF"/>
<stop offset="0.512" stop-color="#00D2FF"/>
<stop offset="0.76" stop-color="#00DFFF"/>
<stop offset="1" stop-color="#00E3FF"/>
</linearGradient>
<linearGradient id="paint1_linear_270_388" x1="200.498" y1="118.524" x2="57.1081" y2="118.524" gradientUnits="userSpaceOnUse">
<stop stop-color="#FFE000"/>
<stop offset="0.409" stop-color="#FFBD00"/>
<stop offset="0.775" stop-color="#FFA500"/>
<stop offset="1" stop-color="#FF9C00"/>
</linearGradient>
<linearGradient id="paint2_linear_270_388" x1="147.123" y1="132.124" x2="12.261" y2="266.987" gradientUnits="userSpaceOnUse">
<stop stop-color="#FF3A44"/>
<stop offset="1" stop-color="#C31162"/>
</linearGradient>
<linearGradient id="paint3_linear_270_388" x1="43.2417" y1="1.04262" x2="103.467" y2="61.2678" gradientUnits="userSpaceOnUse">
<stop stop-color="#32A071"/>
<stop offset="0.069" stop-color="#2DA771"/>
<stop offset="0.476" stop-color="#15CF74"/>
<stop offset="0.801" stop-color="#06E775"/>
<stop offset="1" stop-color="#00F076"/>
</linearGradient>
</defs>
</svg>
